<svg aria-hidden="true" style="position:absolute;width:0;height:0;overflow:hidden" xmlns="http://www.w3.org/2000/svg">
  <defs>
    <symbol id="icon-s" viewBox="0 0 32 32">
      <path d="M30.38 11.167h-9.621c-.05-.593-.259-1.105-.625-1.534s-.84-.758-1.42-.985a4.819 4.819 0 0 0-1.894-.36c-.896 0-1.667.164-2.311.492s-.96.795-.947 1.402c-.013.429.17.827.549 1.193.391.366 1.143.65 2.254.852l5.909 1.061c2.98.543 5.196 1.458 6.648 2.746 1.465 1.275 2.203 2.986 2.216 5.133-.013 2.071-.631 3.87-1.856 5.398-1.212 1.515-2.872 2.689-4.981 3.523-2.096.821-4.489 1.231-7.178 1.231-4.444 0-7.923-.909-10.436-2.727-2.5-1.818-3.895-4.217-4.186-7.197H12.88c.139.922.593 1.635 1.364 2.14.783.492 1.768.739 2.955.739.96 0 1.749-.164 2.367-.492.631-.328.953-.795.966-1.402-.013-.556-.29-.997-.833-1.326-.53-.328-1.364-.593-2.5-.795l-5.152-.909c-2.967-.518-5.189-1.503-6.667-2.955s-2.21-3.321-2.197-5.606c-.013-2.02.518-3.731 1.591-5.133 1.086-1.414 2.633-2.487 4.64-3.22 2.02-.745 4.413-1.117 7.178-1.117 4.205 0 7.519.871 9.943 2.614 2.437 1.742 3.718 4.154 3.845 7.235z"/>
    </symbol>
    <symbol id="icon-k" viewBox="0 0 28 32">
      <path d="m9.418 25.515.061-9.939h1.091l5.636-7.818H25.6L16.146 19.94h-2.364l-4.364 5.576zM1.903 31.03V0h8.364v31.03H1.903zm14.364 0-5.333-9.212 5.455-5.939 9.455 15.152h-9.576z"/>
    </symbol>
    <symbol id="icon-c" viewBox="0 0 32 32">
      <path d="M17.65 31.318c-3.157 0-5.859-.625-8.106-1.875-2.247-1.263-3.971-3.018-5.17-5.265-1.2-2.26-1.799-4.88-1.799-7.86s.6-5.593 1.799-7.841c1.2-2.26 2.923-4.015 5.17-5.265 2.248-1.263 4.95-1.894 8.106-1.894 2.854 0 5.322.518 7.405 1.553 2.096 1.023 3.719 2.475 4.867 4.356 1.149 1.869 1.73 4.066 1.742 6.591h-9.697c-.139-1.528-.581-2.689-1.326-3.485-.732-.808-1.679-1.212-2.841-1.212-.909 0-1.705.265-2.386.795-.682.518-1.212 1.307-1.591 2.367-.379 1.048-.568 2.367-.568 3.958s.189 2.917.568 3.977c.379 1.048.909 1.837 1.591 2.367.682.518 1.477.776 2.386.776.77 0 1.452-.177 2.045-.53.593-.366 1.073-.896 1.439-1.591.379-.707.606-1.566.682-2.576h9.697c-.038 2.563-.625 4.798-1.761 6.705-1.136 1.894-2.746 3.359-4.829 4.394-2.071 1.035-4.545 1.553-7.424 1.553z"/>
    </symbol>
    <symbol id="icon-u" viewBox="0 0 32 32">
      <path d="M21.463 18.061V1.697h10.455v29.091h-9.924v-5.53h-.303c-.631 1.856-1.736 3.308-3.314 4.356-1.578 1.035-3.453 1.553-5.625 1.553-2.033 0-3.813-.467-5.341-1.402-1.515-.934-2.696-2.222-3.542-3.864-.833-1.641-1.256-3.523-1.269-5.644V1.696h10.455V18.06c.013 1.439.379 2.569 1.098 3.39.732.821 1.755 1.231 3.068 1.231.871 0 1.622-.183 2.254-.549a3.749 3.749 0 0 0 1.477-1.591c.354-.694.524-1.521.511-2.481z"/>
    </symbol>
    <symbol id="icon-r1" viewBox="0 0 24 32">
      <path d="M2.408 30.788V1.697H12.56v5.53h.303c.53-2.045 1.37-3.542 2.519-4.489 1.162-.947 2.519-1.42 4.072-1.42.455 0 .903.038 1.345.114.455.063.89.158 1.307.284v8.92c-.518-.177-1.155-.309-1.913-.398s-1.408-.133-1.951-.133c-1.023 0-1.944.234-2.765.701a4.936 4.936 0 0 0-1.913 1.932c-.467.821-.701 1.787-.701 2.898v15.152H2.408z"/>
    </symbol>
    <symbol id="icon-t1" viewBox="0 0 30 32">
      <path d="M.962 6.788V0h26.97v6.788h-9.333v24.243h-8.303V6.788H.963z"/>
    </symbol>
    <symbol id="icon-l" viewBox="0 0 11 32">
      <path d="M9.617 0v31.03H1.253V0h8.364z"/>
    </symbol>
    <symbol id="icon-e" viewBox="0 0 32 32">
      <path d="M16.658 31.318c-3.106 0-5.783-.593-8.03-1.78-2.235-1.199-3.958-2.917-5.17-5.152-1.2-2.247-1.799-4.937-1.799-8.068 0-3.005.606-5.631 1.818-7.879S6.4 4.443 8.61 3.193c2.21-1.25 4.817-1.875 7.822-1.875 2.197 0 4.186.341 5.966 1.023s3.302 1.673 4.564 2.973c1.263 1.288 2.235 2.854 2.917 4.697s1.023 3.92 1.023 6.231v2.424H4.917v-5.758h16.364c-.013-.833-.227-1.566-.644-2.197a4.094 4.094 0 0 0-1.648-1.496c-.682-.366-1.458-.549-2.33-.549-.846 0-1.622.183-2.33.549a4.414 4.414 0 0 0-1.705 1.477c-.417.631-.638 1.37-.663 2.216v6.212c0 .934.196 1.768.587 2.5s.953 1.307 1.686 1.724c.732.417 1.616.625 2.652.625.72 0 1.376-.101 1.97-.303a4.428 4.428 0 0 0 1.553-.871c.429-.391.745-.859.947-1.402h9.545c-.328 2.02-1.105 3.775-2.33 5.265-1.225 1.477-2.847 2.626-4.867 3.447-2.008.808-4.356 1.212-7.045 1.212z"/>
    </symbol>
    <symbol id="icon-a" viewBox="0 0 29 32">
      <path d="M10.816 31.242c-1.856 0-3.497-.303-4.924-.909-1.414-.619-2.525-1.553-3.333-2.803s-1.212-2.841-1.212-4.773c0-1.591.271-2.948.814-4.072.543-1.136 1.3-2.064 2.273-2.784s2.102-1.269 3.39-1.648c1.3-.379 2.702-.625 4.205-.739 1.629-.126 2.936-.278 3.92-.455.997-.189 1.717-.448 2.159-.777.442-.341.663-.789.663-1.345v-.076c0-.758-.29-1.338-.871-1.742s-1.326-.606-2.235-.606c-.997 0-1.812.221-2.443.663-.619.429-.991 1.092-1.117 1.989H2.484A9.904 9.904 0 0 1 4.17 6.279c1.01-1.503 2.481-2.702 4.413-3.598 1.932-.909 4.343-1.364 7.235-1.364 2.083 0 3.952.246 5.606.739 1.654.48 3.062 1.155 4.224 2.026 1.162.859 2.045 1.869 2.651 3.03a7.781 7.781 0 0 1 .928 3.75v19.924h-9.773v-4.091h-.227c-.581 1.086-1.288 1.963-2.121 2.633a7.806 7.806 0 0 1-2.822 1.458c-1.048.303-2.203.454-3.466.454zm3.409-6.59a5.17 5.17 0 0 0 2.235-.492c.707-.328 1.282-.802 1.723-1.42s.663-1.37.663-2.254v-2.424c-.278.114-.574.221-.89.322a13.15 13.15 0 0 1-.985.284 25.503 25.503 0 0 1-2.291.454c-.808.126-1.471.335-1.989.625-.505.278-.884.625-1.136 1.042a2.62 2.62 0 0 0-.36 1.364c0 .808.284 1.427.852 1.856s1.294.644 2.178.644z"/>
    </symbol>
    <symbol id="icon-v" viewBox="0 0 35 32">
      <path d="m34.23 1.697-9.773 29.091H12.336L2.563 1.697h10.985l4.697 19.242h.303l4.697-19.242H34.23z"/>
    </symbol>
    <symbol id="icon-r" viewBox="0 0 21 32">
      <path d="M1.206 30.788V1.697h10.152v5.53h.303c.53-2.045 1.37-3.542 2.519-4.489 1.162-.947 2.519-1.42 4.072-1.42.455 0 .903.038 1.345.114.455.063.89.158 1.307.284v8.92c-.518-.177-1.155-.309-1.913-.398s-1.408-.133-1.951-.133c-1.023 0-1.944.234-2.765.701a4.936 4.936 0 0 0-1.913 1.932c-.467.821-.701 1.787-.701 2.898v15.152H1.206z"/>
    </symbol>
    <symbol id="icon-t" viewBox="0 0 28 32">
      <path d="M0 6.788V0h26.97v6.788h-9.333v24.243H9.334V6.788H.001z"/>
    </symbol>
  </defs>
</svg>